<?xml version="1.0" encoding="utf-8"?>
<!-- Generator: Adobe Illustrator 27.5.0, SVG Export Plug-In . SVG Version: 6.00 Build 0)  -->
<svg version="1.1" id="ppsn2024-logo" xmlns="http://www.w3.org/2000/svg" xmlns:xlink="http://www.w3.org/1999/xlink" x="0px" y="0px"
	 viewBox="0 0 100 110">
<style>

</style>

<!-- Top left gradients-->
<linearGradient id="p1-top" x1="0" y1="1" x2="0" y="1">
	<stop offset="0%" stop-opacity="0" stop-color="#abcd61">
		<animate attributeName="offset" values="1;0" repeatCount="1" dur="1s" begin="0s"/>
	</stop>
	<stop offset="0%" stop-opacity="1" stop-color="#abcd61">
		<animate attributeName="offset" values="1;0" repeatCount="1" dur="1s"  begin="0s"/>
	</stop>
</linearGradient>

<linearGradient id="p2-top" x1="0" y1="1" x2="0" y="1">
	<stop offset="0%" stop-opacity="0" stop-color="#abcd61">
		<animate attributeName="offset" values="1;0" repeatCount="1" dur="0.9s" begin="0s"/>
	</stop>
	<stop offset="0%" stop-opacity="1" stop-color="#abcd61">
		<animate attributeName="offset" values="1;0" repeatCount="1" dur="0.9s"  begin="0s"/>
	</stop>
</linearGradient>

<linearGradient id="p3-top" x1="0" y1="1" x2="0" y="1">
	<stop offset="0%" stop-opacity="0" stop-color="#abcd61">
		<animate attributeName="offset" values="1;0" repeatCount="1" dur="0.8s" begin="0s"/>
	</stop>
	<stop offset="0%" stop-opacity="1" stop-color="#abcd61">
		<animate attributeName="offset" values="1;0" repeatCount="1" dur="0.8s"  begin="0s"/>
	</stop>
</linearGradient>

<!--Middle left gradients-->
<linearGradient id="p1-middle" x1="0" y1="1" x2="0" y="1">
	<stop offset="0%" stop-opacity="0" stop-color="#abcd61">
		<animate attributeName="offset" values="1;0" repeatCount="1" dur="0.3s" begin="1.5s" fill="freeze"/>
	</stop>
	<stop offset="0%" stop-opacity="0" stop-color="#abcd61">
		<animate attributeName="offset" values="1;0" repeatCount="1" dur="0.3s"  begin="1.5s" fill="freeze" />
		<animate attributeName="stop-opacity" values="0;1" repeatCount="1" dur="0.01s" begin="1.5" fill="freeze"/>
	</stop>
</linearGradient>

<linearGradient id="p2-middle" x1="0" y1="1" x2="0" y="1">
	<stop offset="0%" stop-opacity="0" stop-color="#abcd61">
		<animate attributeName="offset" values="1;0" repeatCount="1" dur="0.5s" begin="1.3s" fill="freeze"/>
	</stop>
	<stop offset="0%" stop-opacity="0" stop-color="#abcd61">
		<animate attributeName="offset" values="1;0" repeatCount="1" dur="0.5s"  begin="1.3s" fill="freeze" />
		<animate attributeName="stop-opacity" values="0;1" repeatCount="1" dur="0.01s" begin="1.3" fill="freeze"/>
	</stop>
</linearGradient>

<linearGradient id="p3-middle" x1="0" y1="1" x2="0" y="1">
	<stop offset="0%" stop-opacity="0" stop-color="#abcd61">
		<animate attributeName="offset" values="1;0" repeatCount="1" dur="0.7s" begin="1.1s" fill="freeze"/>
	</stop>
	<stop offset="0%" stop-opacity="0" stop-color="#abcd61">
		<animate attributeName="offset" values="1;0" repeatCount="1" dur="0.7s"  begin="1.1s" fill="freeze" />
		<animate attributeName="stop-opacity" values="0;1" repeatCount="1" dur="0.01s" begin="1.1s" fill="freeze"/>
	</stop>
</linearGradient>

<!-- Right gradients -->

<linearGradient id="fill-full" x1="0" y1="1" x2="0" y="1">
	<stop offset="0%" stop-opacity="0" stop-color="#abcd61">
		<animate attributeName="offset" values="1;0" repeatCount="1" dur="2s" begin="0s"/>
	</stop>
	<stop offset="0%" stop-opacity="1" stop-color="#abcd61">
		<animate attributeName="offset" values="1;0" repeatCount="1" dur="2s"  begin="0s"/>
	</stop>
</linearGradient>

<linearGradient id="fill-long-sep-1" x1="0" y1="1" x2="0" y="1">
	<stop offset="0%" stop-opacity="0" stop-color="#abcd61">
		<animate attributeName="offset" values="1;0" repeatCount="1" dur="1.7s" begin="0s"/>
	</stop>
	<stop offset="0%" stop-opacity="1" stop-color="#abcd61">
		<animate attributeName="offset" values="1;0" repeatCount="1" dur="1.7s"  begin="0s"/>
	</stop>
</linearGradient>

<!-- Bottom accents-->

<linearGradient id="bot-acc" x1="0" y1="1" x2="0" y="1">
	<stop offset="0%" stop-opacity="0" stop-color="#abcd61">
		<animate attributeName="offset" values="1;0" repeatCount="1" dur="0.2s" begin="1.8s" fill="freeze"/>
	</stop>
	<stop offset="0%" stop-opacity="0" stop-color="#abcd61">
		<animate attributeName="offset" values="1;0" repeatCount="1" dur="0.2s"  begin="1.8s" fill="freeze" />
		<animate attributeName="stop-opacity" values="0;1" repeatCount="1" dur="0.01s" begin="1.8" fill="freeze"/>
	</stop>
</linearGradient>


<linearGradient id="pink-fill" x1="0" y1="1" x2="0" y="1">
	<stop offset="0%" stop-opacity="0" stop-color="#abcd61">
		<animate attributeName="offset" values="1;0" repeatCount="1" dur="0.2s" begin="1.8s" fill="freeze"/>
	</stop>
	<stop offset="0%" stop-opacity="0" stop-color="#abcd61">
		<animate attributeName="offset" values="1;0" repeatCount="1" dur="0.2s"  begin="1.8s" fill="freeze" />
		<animate attributeName="stop-opacity" values="0;1" repeatCount="1" dur="0.01s" begin="1.8" fill="freeze"/>
	</stop>
</linearGradient>



	<!-- Left paths -->
	<path class="p1-top" fill="url(#p1-top)" d="M0,0c0.01,3.32,0.97,26.92,23.15,52.97c1.48-1.73,3.04-3.47,4.71-5.22C7.88,23.97,7.01,3.01,7,0H0z"/>
	<path class="p1-middle" fill="url(#p1-middle)" d="M49.24,79.47c3.18,3.98,5.55,7.73,7.32,11.1h7.7c-2.22-4.85-5.51-10.48-10.41-16.46C52.15,75.94,50.62,77.73,49.24,79.47z"
		/>
	<path class="p1-bottom" fill="url(#bot-acc)" d="M61.76,106.05h7.02c-0.1-1.22-0.48-4.24-1.81-8.47h-7.31C61.13,101.67,61.61,104.67,61.76,106.05z"/>

	<path class="p2-top" fill="url(#p2-top)" d="M15,0c0.02,1.59,0.62,20.37,18.61,42.11c1.19-1.1,2.41-2.2,3.69-3.3c0.54-0.46,1.05-0.92,1.56-1.38
		C23,18.05,22.05,1.4,22,0H15z"/>
	<path class="p2-middle" fill="url(#p2-middle)" d="M61.46,66.82c-0.65,0.56-1.27,1.12-1.89,1.67c6.74,8.13,10.85,15.79,13.35,22.08h7.55c-2.62-7.41-7.3-16.78-15.65-26.76
		C63.74,64.82,62.62,65.82,61.46,66.82z"/>
	<path class="p2-bottom" fill="url(#bot-acc)" d="M76.8,106.05h7.01c-0.04-1.11-0.25-4.13-1.27-8.47h-7.28C76.45,101.94,76.73,104.96,76.8,106.05z"/>


	<path class="p3-top" fill="url(#p3-top)" d="M30.01,0c0.12,1.95,1.42,15.54,14.58,31.84c1.72-1.82,3.26-3.6,4.65-5.34C38.72,13.13,37.23,2.39,37.03,0H30.01z"/>
	<path class="p3-middle" fill="url(#p3-middle)" d="M88.95,90.58h7.25c-2.83-9.92-8.7-23.4-20.9-37.58c-1.49,1.73-3.06,3.47-4.74,5.21C80.91,70.39,86.22,81.85,88.95,90.58z"
		/>
	<path class="p3-bottom" fill="url(#bot-acc)" d="M91.81,106.05h7c-0.03-1.32-0.19-4.29-0.96-8.47h-7.09C91.61,101.77,91.79,104.75,91.81,106.05z"/>
	<!-- Right paths-->
	<path class="p4-full" fill="url(#fill-full)" d="M61.72,0c-0.32,3.03-2.17,13.57-12.48,26.49c-1.39,1.74-2.93,3.53-4.65,5.34c-1.73,1.83-3.64,3.7-5.74,5.58
		c-0.51,0.46-1.02,0.92-1.56,1.38c-1.28,1.1-2.5,2.2-3.69,3.3c-2.03,1.88-3.95,3.76-5.74,5.64c-1.67,1.75-3.23,3.49-4.71,5.22
		C2.63,77.02,0.25,99,0,104.88v1.17h6.97c0.01-3.48,1.13-32.81,34.9-61.94C65.64,23.6,68.43,3.74,68.75,0H61.72z"/>

	<path class="p5-full" fill="url(#fill-full)" d="M51.67,55.46C81.55,29.68,83.64,3.9,83.78,0h-7.01c-0.22,3.59-2.72,26.91-29.67,50.16
		c-31.47,27.14-32.11,54.27-32.12,55.89h7C22.01,104.74,23.14,80.07,51.67,55.46z"/>

	<path class="p6-top" fill="url(#fill-long-sep-1)" d="M49.24,79.47c1.38-1.75,2.91-3.54,4.61-5.36c1.73-1.85,3.63-3.72,5.72-5.62c0.61-0.56,1.24-1.11,1.89-1.67
		c1.16-1,2.28-2,3.36-3c2.03-1.87,3.94-3.74,5.74-5.61c1.68-1.74,3.25-3.48,4.74-5.21C97.1,27.65,98.69,4.52,98.78,0h-7
		c-0.11,4.96-2.23,33.34-34.89,61.52C44.64,72.08,37.97,82.47,34.33,90.58h7.7C43.77,87.21,46.09,83.46,49.24,79.47z"/>
	<polygon class="p6-bottom" fill="url(#bot-acc)" points="41.06,97.58 37.54,101.1 34.02,97.58 31.55,100.05 37.54,106.05 37.55,106.04 40.01,103.57 43.53,100.05 "/>
</svg>
