<?xml version="1.0" encoding="UTF-8"?>
<svg xmlns="http://www.w3.org/2000/svg" version="1.1" viewBox="0 0 1920 1080">
  <defs>
    <style>
      .cls-1 {
        fill: #5e8039;
      }

      .cls-1, .cls-2, .cls-3, .cls-4 {
        stroke: #000;
        stroke-miterlimit: 10;
      }

      .cls-1, .cls-2, .cls-4 {
        stroke-width: 3px;
      }

      .cls-5 {
        stroke-width: 0px;
      }

      .cls-5, .cls-6, .cls-7, .cls-8 {
        fill: #000;
      }

      .cls-6 {
        font-size: 36px;
      }

      .cls-6, .cls-7, .cls-8 {
        font-family: SourceSansPro-Black, 'Source Sans Pro';
        font-weight: 800;
      }

      .cls-2 {
        fill: #aaa;
      }

      .cls-3 {
        stroke-width: 6px;
      }

      .cls-3, .cls-4 {
        fill: none;
      }

      .cls-7 {
        font-size: 24px;
      }

      .cls-8 {
        font-size: 60px;
      }
    </style>
  </defs>
  <g id="rooms">
    <rect id="pub" class="cls-2" x="119.18" y="125.88" width="191.71" height="337.47"/>
    <rect id="breakroom" class="cls-2" x="310.89" y="125.88" width="405.06" height="337.47"/>
    <rect id="toilets" class="cls-2" x="715.94" y="274.08" width="156.37" height="142.45"/>
    <polygon id="audimax" class="cls-2" points="1858.08 550.82 1408.41 469.54 1412.24 421.83 1388.39 414.18 1410.47 173.29 1435.64 171.63 1440.21 126.91 1897.25 126.91 1858.08 550.82"/>
    <polygon id="hs6" class="cls-2" points="355.5 913.47 120.29 935.99 120.29 673.61 165.06 673.61 164.84 647.11 309.17 647.11 309.4 673.61 355.5 673.61 355.5 913.47"/>
    <polygon id="hs5" class="cls-2" points="598.37 890.06 355.5 913.47 355.5 673.61 406.01 673.61 405.86 647.11 544.39 647.11 544.61 673.61 598.37 673.61 598.37 890.06"/>
    <rect id="registrationdesk" class="cls-2" x="905.44" y="463.36" width="322.45" height="58.26"/>
    <polygon id="hs4" class="cls-2" points="1078.37 915.9 794.79 943.72 761.59 634.3 1047.67 602.5 1078.37 915.9"/>
    <polygon id="hs3" class="cls-2" points="1364.39 890.5 1078.37 915.9 1047.67 602.5 1334.35 569.81 1364.39 890.5"/>
    <rect id="elevator" class="cls-2" x="265.7" y="519.81" width="75.53" height="70.85"/>
  </g>
  <g id="frame">
    <line class="cls-4" x1="715.94" y1="125.88" x2="1440.21" y2="126.91"/>
    <line class="cls-4" x1="905.44" y1="463.36" x2="905.44" y2="125.88"/>
    <polyline class="cls-4" points="598.37 673.61 598.37 650.64 761.59 634.3"/>
    <polyline class="cls-4" points="1334.35 569.81 1495.43 552.09 1504.39 488.11"/>
    <line class="cls-4" x1="119.18" y1="463.36" x2="120.29" y2="673.61"/>
    <polyline class="cls-4" points="1227.9 463.36 1268.53 286.67 1318.23 286.67 1352.68 126.91"/>
  </g>
  <g id="annotations">
    <text class="cls-8" transform="translate(789.34 53.76)"><tspan x="0" y="0">FH2 Level 0</tspan></text>
    <text class="cls-8" transform="translate(422.31 801.15)"><tspan x="0" y="0">HS5</tspan></text>
    <text class="cls-8" transform="translate(177.72 801.15)"><tspan x="0" y="0">HS6</tspan></text>
    <text class="cls-8" transform="translate(433.62 281.03)"><tspan x="0" y="0">Break</tspan><tspan x="1.26" y="72">Room</tspan></text>
    <text class="cls-8" transform="translate(158.48 313.05)"><tspan x="0" y="0">Pub</tspan></text>
    <text class="cls-6" transform="translate(741.11 361.75)"><tspan x="0" y="0">Toilets</tspan></text>
    <text class="cls-6" transform="translate(922.42 502.75)"><tspan x="0" y="0">Registration Desk</tspan></text>
    <text class="cls-8" transform="translate(1534.89 333.25)"><tspan x="0" y="0">Audimax</tspan></text>
    <text class="cls-8" transform="translate(863.48 801.15)"><tspan x="0" y="0">HS4</tspan></text>
    <text class="cls-8" transform="translate(1153.91 801.15)"><tspan x="0" y="0">HS3</tspan></text>
    <text class="cls-7" transform="translate(356.08 562.3)"><tspan x="0" y="0">Elevator</tspan></text>
  </g>
  <g id="entrances">
    <text class="cls-7" transform="translate(1273.17 400.47)"><tspan x="0" y="0">Stairs</tspan><tspan x="-2.57" y="28.8">Mensa</tspan></text>
    <polygon class="cls-3" points="1277.37 370.08 1302.04 323.03 1326.72 370.08 1277.37 370.08"/>
    <text class="cls-7" transform="translate(697.57 534.12)"><tspan x="0" y="0">Stairs FH 2 L2</tspan></text>
    <g>
      <path class="cls-5" d="M137.26,550.82v-15.6h10.08v3.46h-5.95v2.45h5.09v3.46h-5.09v2.78h6.19v3.46h-10.32Z"/>
      <path class="cls-5" d="M150.27,550.82v-12h3.36l.29,1.44h.1c.48-.46,1.03-.87,1.64-1.21.62-.34,1.33-.52,2.15-.52,1.33,0,2.28.44,2.87,1.33s.88,2.08.88,3.56v7.39h-4.13v-6.86c0-.77-.1-1.28-.29-1.54-.19-.26-.5-.38-.91-.38-.38,0-.7.08-.96.24-.26.16-.54.38-.86.67v7.87h-4.13Z"/>
      <path class="cls-5" d="M169.18,551.1c-1.55,0-2.68-.45-3.37-1.36-.7-.9-1.04-2.08-1.04-3.54v-4.18h-1.58v-3.07l1.82-.14.48-3.12h3.41v3.12h2.74v3.22h-2.74v4.1c0,.66.14,1.11.43,1.37s.62.38,1.01.38c.19,0,.38-.02.56-.06s.35-.08.49-.13l.62,2.98c-.3.1-.69.19-1.15.29-.46.1-1.02.14-1.68.14Z"/>
      <path class="cls-5" d="M173.84,550.82v-12h3.36l.29,2.06h.1c.45-.82.98-1.41,1.6-1.79.62-.38,1.22-.56,1.81-.56.37,0,.67.02.9.06.23.04.43.1.59.18l-.67,3.55c-.21-.05-.42-.09-.62-.13s-.45-.06-.72-.06c-.43,0-.88.15-1.36.44-.47.3-.85.82-1.14,1.57v6.67h-4.13Z"/>
      <path class="cls-5" d="M186.27,551.1c-.75,0-1.4-.17-1.93-.52-.54-.34-.95-.8-1.24-1.36-.29-.56-.43-1.17-.43-1.82,0-1.25.51-2.23,1.54-2.94,1.02-.71,2.69-1.19,4.99-1.43-.1-.83-.66-1.25-1.68-1.25-.43,0-.89.08-1.37.25s-1.03.42-1.66.76l-1.44-2.69c.85-.51,1.71-.9,2.58-1.18s1.77-.41,2.7-.41c1.57,0,2.79.44,3.67,1.33.88.89,1.32,2.32,1.32,4.28v6.67h-3.36l-.29-1.15h-.1c-.48.43-.99.78-1.52,1.04-.54.26-1.13.4-1.79.4ZM187.71,547.94c.34,0,.62-.08.84-.23s.44-.35.65-.59v-1.63c-.98.14-1.65.36-2.03.65-.38.29-.56.6-.56.94,0,.58.37.86,1.1.86Z"/>
      <path class="cls-5" d="M196.02,550.82v-12h3.36l.29,1.44h.1c.48-.46,1.03-.87,1.64-1.21.62-.34,1.33-.52,2.15-.52,1.33,0,2.28.44,2.87,1.33s.88,2.08.88,3.56v7.39h-4.13v-6.86c0-.77-.1-1.28-.29-1.54-.19-.26-.5-.38-.91-.38-.38,0-.7.08-.96.24-.26.16-.54.38-.86.67v7.87h-4.13Z"/>
      <path class="cls-5" d="M215.41,551.1c-1.14,0-2.16-.25-3.07-.74-.91-.5-1.64-1.21-2.17-2.15-.54-.94-.8-2.07-.8-3.4s.3-2.46.9-3.4c.6-.94,1.39-1.65,2.36-2.15.98-.5,2.03-.74,3.17-.74.72,0,1.37.11,1.96.34.58.22,1.1.53,1.55.91l-1.92,2.64c-.26-.22-.49-.38-.7-.46s-.42-.12-.65-.12c-.77,0-1.37.27-1.8.8-.43.54-.65,1.26-.65,2.17s.22,1.64.67,2.17c.45.54.99.8,1.63.8.34,0,.67-.08,1-.23.33-.15.64-.33.92-.54l1.58,2.69c-.59.53-1.25.89-1.97,1.09-.72.2-1.39.3-2.02.3Z"/>
      <path class="cls-5" d="M226.16,551.1c-1.17,0-2.22-.25-3.16-.74-.94-.5-1.68-1.21-2.22-2.15-.54-.94-.82-2.07-.82-3.4s.28-2.41.83-3.35c.55-.94,1.27-1.66,2.15-2.17.88-.51,1.81-.77,2.78-.77,1.18,0,2.16.26,2.94.78s1.35,1.22,1.73,2.1c.38.88.56,1.86.56,2.93,0,.35-.02.69-.06,1.02-.04.33-.08.56-.11.71h-6.84c.19.72.54,1.22,1.03,1.5.5.28,1.08.42,1.75.42.77,0,1.58-.24,2.45-.72l1.34,2.45c-.64.45-1.36.79-2.16,1.03-.8.24-1.54.36-2.21.36ZM223.9,543.38h3.55c0-.46-.12-.87-.35-1.21-.23-.34-.66-.52-1.28-.52-.45,0-.85.14-1.2.41-.35.27-.59.71-.72,1.32Z"/>
      <path class="cls-5" d="M135.7,583.46l4.22-20.88h2.64l-4.22,20.88h-2.64Z"/>
      <path class="cls-5" d="M149.91,579.62v-15.6h10.08v3.46h-5.95v2.45h5.09v3.46h-5.09v2.78h6.19v3.46h-10.32Z"/>
      <path class="cls-5" d="M160.66,579.62l3.6-6.24-3.41-5.76h4.42l.86,1.68c.16.34.32.68.48,1.03.16.35.32.7.48,1.03h.1c.11-.34.23-.68.36-1.03.13-.35.25-.7.36-1.03l.58-1.68h4.27l-3.41,6.24,3.6,5.76h-4.42l-.96-1.68c-.18-.34-.35-.68-.53-1.03-.18-.35-.35-.7-.53-1.03h-.1c-.13.34-.26.68-.41,1.02-.14.34-.28.69-.41,1.04l-.67,1.68h-4.27Z"/>
      <path class="cls-5" d="M176.74,566.13c-.67,0-1.22-.19-1.63-.56-.42-.38-.62-.88-.62-1.5s.21-1.12.62-1.5c.42-.38.96-.56,1.63-.56s1.22.19,1.63.56.62.88.62,1.5-.21,1.12-.62,1.5-.96.56-1.63.56ZM174.68,579.62v-12h4.13v12h-4.13Z"/>
      <path class="cls-5" d="M186.54,579.9c-1.55,0-2.68-.45-3.37-1.36-.7-.9-1.04-2.08-1.04-3.54v-4.18h-1.58v-3.07l1.82-.14.48-3.12h3.41v3.12h2.74v3.22h-2.74v4.1c0,.66.14,1.11.43,1.37s.62.38,1.01.38c.19,0,.38-.02.56-.06.18-.04.35-.08.49-.13l.62,2.98c-.3.1-.69.19-1.15.29-.46.1-1.02.14-1.68.14Z"/>
      <path class="cls-5" d="M196.33,579.62v-15.6h10.18v3.46h-6.05v2.98h5.18v3.46h-5.18v5.71h-4.13Z"/>
      <path class="cls-5" d="M209.19,579.62v-15.6h4.13v5.81h4.66v-5.81h4.13v15.6h-4.13v-6.19h-4.66v6.19h-4.13Z"/>
      <path class="cls-5" d="M229.73,579.9c-1.23,0-2.3-.19-3.2-.58-.9-.38-1.64-.91-2.22-1.58l1.87-2.59c.46.43.96.78,1.5,1.04.54.26,1.08.4,1.62.4.67,0,1.21-.12,1.61-.36.4-.24.6-.6.6-1.08,0-.38-.1-.71-.29-.98-.19-.27-.56-.48-1.09-.62s-1.34-.22-2.41-.22v-2.88c1.28,0,2.15-.16,2.62-.47.46-.31.7-.73.7-1.26,0-.93-.53-1.39-1.58-1.39-.5,0-.95.1-1.36.31-.41.21-.85.52-1.33.94l-2.06-2.5c.75-.62,1.53-1.11,2.34-1.45.81-.34,1.68-.52,2.6-.52,1.68,0,3.02.37,4.02,1.12,1,.74,1.5,1.8,1.5,3.18,0,1.47-.82,2.57-2.45,3.29v.1c.86.26,1.57.69,2.11,1.3.54.61.82,1.39.82,2.35s-.27,1.77-.82,2.44c-.54.66-1.26,1.17-2.16,1.51-.9.34-1.87.52-2.93.52Z"/>
    </g>
    <polygon class="cls-3" points="1403.06 630.4 1427.73 583.35 1452.4 630.4 1403.06 630.4"/>
    <polygon class="cls-3" points="683.48 552.09 636.44 527.42 683.48 502.75 683.48 552.09"/>
    <polygon class="cls-3" points="48.39 534.01 95.44 558.68 48.39 583.35 48.39 534.01"/>
    <polygon class="cls-3" points="31.59 202.03 56.27 154.99 80.94 202.03 31.59 202.03"/>
    <text class="cls-7" transform="translate(16.62 236.19)"><tspan x="0" y="0">Garage</tspan></text>
    <text class="cls-7" transform="translate(1472.02 616.37)"><tspan x="0" y="0">Entrance / Exit Park</tspan></text>
  </g>
</svg>