<?xml version="1.0" encoding="utf-8"?>
<!-- Generator: Adobe Illustrator 27.5.0, SVG Export Plug-In . SVG Version: 6.00 Build 0)  -->
<svg version="1.1" id="ppsn2024-logo" xmlns="http://www.w3.org/2000/svg" xmlns:xlink="http://www.w3.org/1999/xlink" x="0px" y="0px"
	 viewBox="0 0 271.52 106.05" style="enable-background:new 0 0 271.52 106.05;" xml:space="preserve">
<g>
	<path d="M139.31,15.63h11.56c7.07,0,12.76,2.56,12.76,10.48c0,7.67-5.85,11.05-12.76,11.05h-4.18v11.05h-7.38V15.63z M150.44,31.31
		c4.04,0,5.96-1.81,5.96-5.2c0-3.4-2.08-4.63-5.96-4.63h-3.76v9.83H150.44z"/>
	<path d="M169.31,15.63h11.56c7.07,0,12.76,2.56,12.76,10.48c0,7.67-5.85,11.05-12.76,11.05h-4.19v11.05h-7.38V15.63z M180.44,31.31
		c4.04,0,5.96-1.81,5.96-5.2c0-3.4-2.08-4.63-5.96-4.63h-3.76v9.83H180.44z"/>
	<path d="M198.1,44.11l4.23-5.07c2.46,2.02,5.5,3.4,8.66,3.4c3.13,0,4.57-1.21,4.57-2.81c0-2.35-1.94-2.91-5.02-4.2l-4.25-1.81
		c-3.61-1.37-6.91-4.14-6.91-8.88c0-5.4,4.86-9.71,11.94-9.71c3.92,0,7.88,1.47,10.82,4.27l-3.71,4.65
		c-2.29-1.65-4.33-2.54-7.51-2.54c-2.43,0-4.08,1.01-4.08,2.91c0,1.96,2.18,2.68,5.31,3.85l3.99,1.69c4.27,1.6,6.96,4.26,6.96,8.86
		c0,5.42-4.54,10.11-12.61,10.11C206.1,48.82,201.56,47.2,198.1,44.11z"/>
	<path d="M228.89,15.63h7.56l6.86,16.2l2.79,7.16h0.17c-0.33-3.43-1.02-8-1.02-11.84V15.63h7.03v32.58h-7.56l-6.86-16.24l-2.79-7.12
		h-0.17c0.33,3.6,1.02,7.97,1.02,11.8v11.56h-7.03V15.63z"/>
</g>
<g>
	<path d="M138.47,85.86c9.1-7.64,15.22-13.02,15.22-17.6c0-3.07-1.91-4.76-5.24-4.76c-2.53,0-4.59,1.56-6.39,3.22l-3.95-3.97
		c3.3-3.33,6.48-5.03,11.34-5.03c6.69,0,11.23,4,11.23,10.12c0,5.35-5.5,11.05-11.66,16.41c1.82-0.19,4.12-0.36,5.77-0.36h7.53v6.18
		h-23.86V85.86z"/>
	<path d="M167.48,73.64c0-10.89,5.34-16.74,13.11-16.74c7.76,0,13.11,5.85,13.11,16.74c0,11.15-5.34,17.04-13.11,17.04
		C172.82,90.68,167.48,84.78,167.48,73.64z M186.13,73.64c0-6.77-2.15-10.37-5.54-10.37c-3.4,0-5.54,3.6-5.54,10.37
		c0,7.03,2.15,10.67,5.54,10.67C183.98,84.31,186.13,80.67,186.13,73.64z"/>
	<path d="M198.47,85.86c9.11-7.64,15.22-13.02,15.22-17.6c0-3.07-1.91-4.76-5.24-4.76c-2.53,0-4.59,1.56-6.39,3.22l-3.95-3.97
		c3.3-3.33,6.48-5.03,11.34-5.03c6.69,0,11.23,4,11.23,10.12c0,5.35-5.5,11.05-11.66,16.41c1.82-0.19,4.12-0.36,5.77-0.36h7.53v6.18
		h-23.86V85.86z"/>
	<path d="M242.61,71.56c0.01-2.04,0.19-4.95,0.29-6.99h-0.21c-1.05,1.8-2.34,3.61-3.47,5.41l-4.78,6.9h19.04v5.62h-26.17v-5.09
		l13.27-19.09h8.89v31.76h-6.86V71.56z"/>
</g>
<path d="M264.52,7v92.05h-136.6V7H264.52 M271.52,0h-150.6v106.05h150.6V0L271.52,0z"/>
<g>
	<path d="M30.01,0c0.12,1.95,1.42,15.54,14.58,31.84c1.72-1.82,3.26-3.6,4.65-5.34C38.72,13.13,37.23,2.39,37.03,0H30.01z"/>
	<path d="M0,0c0.01,3.32,0.97,26.92,23.15,52.97c1.48-1.73,3.04-3.47,4.71-5.22C7.88,23.97,7.01,3.01,7,0H0z"/>
	<path d="M15,0c0.02,1.59,0.62,20.37,18.61,42.11c1.19-1.1,2.41-2.2,3.69-3.3c0.54-0.46,1.05-0.92,1.56-1.38
		C23,18.05,22.05,1.4,22,0H15z"/>
	<path d="M61.72,0c-0.32,3.03-2.17,13.57-12.48,26.49c-1.39,1.74-2.93,3.53-4.65,5.34c-1.73,1.83-3.64,3.7-5.74,5.58
		c-0.51,0.46-1.02,0.92-1.56,1.38c-1.28,1.1-2.5,2.2-3.69,3.3c-2.03,1.88-3.95,3.76-5.74,5.64c-1.67,1.75-3.23,3.49-4.71,5.22
		C2.63,77.02,0.25,99,0,104.88v1.17h6.97c0.01-3.48,1.13-32.81,34.9-61.94C65.64,23.6,68.43,3.74,68.75,0H61.72z"/>
	<path d="M51.67,55.46C81.55,29.68,83.64,3.9,83.78,0h-7.01c-0.22,3.59-2.72,26.91-29.67,50.16
		c-31.47,27.14-32.11,54.27-32.12,55.89h7C22.01,104.74,23.14,80.07,51.67,55.46z"/>
</g>
<g>
	<path d="M91.81,106.05h7c-0.03-1.32-0.19-4.29-0.96-8.47h-7.09C91.61,101.77,91.79,104.75,91.81,106.05z"/>
	<path d="M88.95,90.58h7.25c-2.83-9.92-8.7-23.4-20.9-37.58c-1.49,1.73-3.06,3.47-4.74,5.21C80.91,70.39,86.22,81.85,88.95,90.58z"
		/>
	<path d="M76.8,106.05h7.01c-0.04-1.11-0.25-4.13-1.27-8.47h-7.28C76.45,101.94,76.73,104.96,76.8,106.05z"/>
	<path d="M61.46,66.82c-0.65,0.56-1.27,1.12-1.89,1.67c6.74,8.13,10.85,15.79,13.35,22.08h7.55c-2.62-7.41-7.3-16.78-15.65-26.76
		C63.74,64.82,62.62,65.82,61.46,66.82z"/>
	<path d="M49.24,79.47c3.18,3.98,5.55,7.73,7.32,11.1h7.7c-2.22-4.85-5.51-10.48-10.41-16.46C52.15,75.94,50.62,77.73,49.24,79.47z"
		/>
	<path d="M61.76,106.05h7.02c-0.1-1.22-0.48-4.24-1.81-8.47h-7.31C61.13,101.67,61.61,104.67,61.76,106.05z"/>
	<path d="M49.24,79.47c1.38-1.75,2.91-3.54,4.61-5.36c1.73-1.85,3.63-3.72,5.72-5.62c0.61-0.56,1.24-1.11,1.89-1.67
		c1.16-1,2.28-2,3.36-3c2.03-1.87,3.94-3.74,5.74-5.61c1.68-1.74,3.25-3.48,4.74-5.21C97.1,27.65,98.69,4.52,98.78,0h-7
		c-0.11,4.96-2.23,33.34-34.89,61.52C44.64,72.08,37.97,82.47,34.33,90.58h7.7C43.77,87.21,46.09,83.46,49.24,79.47z"/>
</g>
<polygon points="41.06,97.58 37.54,101.1 34.02,97.58 31.55,100.05 37.54,106.05 37.55,106.04 40.01,103.57 43.53,100.05 "/>
</svg>
